# xmcd CD database file
#
# Track frame offsets:
#	150
#	45738
#	70860
#	95969
#	143599
#	183729
#	215466
#	239800
#	280962
#	322792
#
# Disc length: 4577 seconds
#
# Revision: 0
# Processed by: cddbd v1.5.2PL0 Copyright (c) Steve Scherf et al.
# Submitted via: CDex 1.74
#
DISCID=9c11df0a
DTITLE=Hans Jur - Power of Angel Healing
DYEAR=2015
DGENRE=New Age
TTITLE0=Don't Cry Little Angel
TTITLE1=The World Of Colours
TTITLE2=An Angel Is Hugging You With His Wings
TTITLE3=An Angel Is Flying
TTITLE4=The Love Of Your Little Angel
TTITLE5=Angellight
TTITLE6=The World Of Beautiful Love
TTITLE7=The Light Of Your Little Angel
TTITLE8=You And Your Little Angel In Heaven
TTITLE9=The World Of Angelhearts
EXTD=YEAR: 2015
EXTT0=
EXTT1=
EXTT2=
EXTT3=
EXTT4=
EXTT5=
EXTT6=
EXTT7=
EXTT8=
EXTT9=
PLAYORDER=
